<svg width="82" height="83" viewBox="0 0 82 83" fill="none" xmlns="http://www.w3.org/2000/svg">
<path fill-rule="evenodd" clip-rule="evenodd" d="M8.85417 25.3917C6.42081 26.0476 4.27146 27.4872 2.73869 29.4877C1.20592 31.4882 0.375174 33.9381 0.375 36.4583V48.9583C0.375 51.9973 1.58221 54.9117 3.73107 57.0606C5.87992 59.2094 8.79439 60.4167 11.8333 60.4167H22.25C23.0788 60.4167 23.8737 60.0874 24.4597 59.5014C25.0458 58.9153 25.375 58.1205 25.375 57.2917V28.125C25.375 27.2962 25.0458 26.5013 24.4597 25.9153C23.8737 25.3292 23.0788 25 22.25 25H15.2292C17.0167 14.7083 27.4958 6.25 41 6.25C54.5042 6.25 64.9833 14.7083 66.7708 25H59.75C58.9212 25 58.1263 25.3292 57.5403 25.9153C56.9542 26.5013 56.625 27.2962 56.625 28.125V57.2917C56.625 59.0167 58.025 60.4167 59.75 60.4167H66.6792C65.975 63.3826 64.2909 66.0244 61.8993 67.9147C59.5077 69.8049 56.5484 70.8333 53.5 70.8333H48.7292C48.004 69.0406 46.6778 67.5558 44.9779 66.6336C43.2781 65.7113 41.3104 65.409 39.4121 65.7784C37.5139 66.1479 35.8031 67.166 34.5732 68.6584C33.3432 70.1507 32.6706 72.0244 32.6706 73.9583C32.6706 75.8922 33.3432 77.7659 34.5732 79.2583C35.8031 80.7507 37.5139 81.7688 39.4121 82.1382C41.3104 82.5076 43.2781 82.2053 44.9779 81.2831C46.6778 80.3608 48.004 78.8761 48.7292 77.0833H53.5C63.5 77.0833 71.7667 69.6667 73.1042 60.0375C75.5473 59.3888 77.7075 57.9506 79.2486 55.9469C80.7896 53.9431 81.6251 51.4862 81.625 48.9583V36.4583C81.6248 33.9381 80.7941 31.4882 79.2613 29.4877C77.7285 27.4872 75.5792 26.0476 73.1458 25.3917C71.5542 10.7917 57.3583 0 41 0C24.6417 0 10.4458 10.7917 8.85417 25.3917ZM36.5 41C36.5 43.2091 35.6046 45 34.5 45C33.3954 45 32.5 43.2091 32.5 41C32.5 38.7909 33.3954 37 34.5 37C35.6046 37 36.5 38.7909 36.5 41ZM48.5 45C49.6046 45 50.5 43.2091 50.5 41C50.5 38.7909 49.6046 37 48.5 37C47.3954 37 46.5 38.7909 46.5 41C46.5 43.2091 47.3954 45 48.5 45Z" fill="black"/>
</svg>
