<svg width="19" height="19" viewBox="0 0 19 19" fill="none" xmlns="http://www.w3.org/2000/svg">
<path fill-rule="evenodd" clip-rule="evenodd" d="M18.3333 9.83072C18.3333 14.8932 14.2291 18.9974 9.16666 18.9974C4.10422 18.9974 0 14.8932 0 9.83072C0 4.76828 4.10422 0.664062 9.16666 0.664062C14.2291 0.664062 18.3333 4.76828 18.3333 9.83072ZM8.55555 6.77517C8.2314 6.77517 7.92052 6.90394 7.69131 7.13315C7.4621 7.36236 7.33333 7.67324 7.33333 7.99739C7.33333 8.32154 7.4621 8.63242 7.69131 8.86163C7.92052 9.09084 8.2314 9.21961 8.55555 9.21961V6.77517ZM9.77777 5.55295V4.94184H8.55555V5.55295C7.90724 5.55295 7.28549 5.81049 6.82707 6.26891C6.36865 6.72733 6.11111 7.34908 6.11111 7.99739C6.11111 8.6457 6.36865 9.26745 6.82707 9.72587C7.28549 10.1843 7.90724 10.4418 8.55555 10.4418V12.8863C8.02388 12.8863 7.57105 12.5471 7.40238 12.0717C7.37736 11.9939 7.33699 11.9219 7.28366 11.86C7.23034 11.7981 7.16513 11.7475 7.09192 11.7112C7.0187 11.6749 6.93895 11.6537 6.85738 11.6488C6.77582 11.6439 6.6941 11.6554 6.61705 11.6826C6.54001 11.7098 6.46921 11.7522 6.40884 11.8073C6.34846 11.8624 6.29974 11.929 6.26556 12.0032C6.23138 12.0774 6.21243 12.1577 6.20983 12.2394C6.20724 12.3211 6.22105 12.4024 6.25044 12.4787C6.41901 12.9553 6.73119 13.368 7.14401 13.6599C7.55682 13.9518 8.04997 14.1085 8.55555 14.1085V14.7196H9.77777V14.1085C10.4261 14.1085 11.0478 13.851 11.5063 13.3925C11.9647 12.9341 12.2222 12.3124 12.2222 11.6641C12.2222 11.0157 11.9647 10.394 11.5063 9.93557C11.0478 9.47715 10.4261 9.21961 9.77777 9.21961V6.77517C10.3094 6.77517 10.7623 7.11434 10.9309 7.58978C10.956 7.66757 10.9963 7.73954 11.0497 7.80145C11.103 7.86336 11.1682 7.91395 11.2414 7.95023C11.3146 7.9865 11.3944 8.00772 11.4759 8.01263C11.5575 8.01755 11.6392 8.00605 11.7163 7.97883C11.7933 7.95161 11.8641 7.90921 11.9245 7.85415C11.9849 7.79909 12.0336 7.73248 12.0678 7.65826C12.1019 7.58404 12.1209 7.50372 12.1235 7.42205C12.1261 7.34038 12.1123 7.25902 12.0829 7.18278C11.9143 6.70613 11.6021 6.29346 11.1893 6.00157C10.7765 5.70969 10.2834 5.55296 9.77777 5.55295ZM9.77777 10.4418V12.8863C10.1019 12.8863 10.4128 12.7575 10.642 12.5283C10.8712 12.2991 11 11.9882 11 11.6641C11 11.3399 10.8712 11.029 10.642 10.7998C10.4128 10.5706 10.1019 10.4418 9.77777 10.4418Z" fill="black"/>
</svg>
